<svg width="227" height="173" viewBox="0 0 227 173" fill="none" xmlns="http://www.w3.org/2000/svg">
<path fill-rule="evenodd" clip-rule="evenodd" d="M79.043 172.68C84.9003 172.697 90.6911 169.793 94.1424 166.109L90.3095 159.29C88.4677 162.028 84.8007 165.064 79.574 165.346C71.3606 165.794 64.8231 159.323 64.8231 151.408C64.8231 137.802 82.1293 132.542 89.9942 143.095L93.7773 136.342C90.3924 132.841 85.0662 130.136 79.2919 130.153C67.1959 130.203 57.5057 139.312 57.5057 151.408C57.5057 163.521 67.1129 172.647 79.043 172.68Z" fill="white"/>
<path fill-rule="evenodd" clip-rule="evenodd" d="M127.643 171.485H136.122L123.677 149.749L134.944 130.186H126.398L116.343 147.758L108.976 147.708L108.926 130.186H100.896L100.945 171.485H108.976V154.826L118.102 154.81L127.643 171.485Z" fill="white"/>
<path fill-rule="evenodd" clip-rule="evenodd" d="M187.078 151.076C187.078 138.632 178.898 131.198 164.379 130.385H156.995C142.477 131.198 134.23 138.565 134.23 151.076C134.23 163.504 142.477 170.871 156.995 171.684H164.379C178.898 171.004 187.078 163.504 187.078 151.076ZM164.379 164.798V137.338C174.102 138.084 179.396 142.68 179.396 150.993C179.396 159.323 174.219 163.985 164.379 164.798ZM142.045 151.076C142.045 142.68 147.09 138.151 156.995 137.338V164.798C147.455 163.919 142.045 159.389 142.045 151.076ZM218.82 130.385C214.771 137.952 211.303 144.788 206.773 152.553L194.777 130.385H186.58L202.575 159.97C200.817 162.675 198.809 165.329 195.242 165.329C194.495 165.329 193.715 165.23 192.885 165.047L196.519 171.635C201.265 171.684 205.429 169.843 209.047 163.206L227 130.385H218.82Z" fill="white"/>
<path fill-rule="evenodd" clip-rule="evenodd" d="M1.5553 83.7931C11.262 95.5739 24.6191 103.289 39.7517 105.297C39.2705 105.795 38.8888 106.525 38.4906 106.973C26.9089 107.969 16.4389 105.513 6.49992 99.4234C4.45902 94.4788 2.63382 89.2023 1.5553 83.7931Z" fill="white"/>
<path fill-rule="evenodd" clip-rule="evenodd" d="M44.132 100.552C43.5015 101.132 42.4728 102.161 41.9916 102.742C24.254 99.0251 9.66904 88.1735 0.227807 72.7423C-0.469086 63.019 0.426919 53.4118 2.99878 44.0204C6.56621 68.7933 21.5494 89.5839 44.132 100.552Z" fill="white"/>
<path fill-rule="evenodd" clip-rule="evenodd" d="M51.3167 94.9267C49.8731 95.8559 47.6995 97.2995 46.2559 98.5937C22.5616 83.6935 9.46993 59.5677 7.56177 31.9077C14.9455 17.4887 21.3835 9.83946 33.38 0C17.2685 35.7904 28.369 73.1737 51.3167 94.9267Z" fill="white"/>
<path fill-rule="evenodd" clip-rule="evenodd" d="M69.6516 17.2231C87.7874 28.8214 113.091 61.6418 101.277 91.1933C91.836 114.772 72.6051 120.712 65.9846 124.91C59.3476 129.091 46.3721 140.872 51.184 159.074C37.2959 153.134 32.6002 138.864 37.1631 125.922C47.2847 97.1335 70.1162 101.365 76.6039 62.8198C79.5243 45.4473 73.3352 24.3414 69.6516 17.2231ZM9.43677 105.894C18.0981 110.607 27.2241 111.984 36.7981 109.528C36.516 109.976 35.8855 111.187 35.5868 111.619C28.8668 115.004 21.8149 115.103 14.3814 113.859C12.4235 111.088 11.2951 108.898 9.43677 105.894ZM17.3183 118.024C22.8437 118.936 29.0161 117.526 33.9773 114.722L33.1477 116.912C30.0449 120.463 24.9841 121.774 20.8028 121.973C19.2762 120.761 18.4134 119.285 17.3183 118.024Z" fill="white"/>
</svg>
